<svg width="55" height="43" viewBox="0 0 55 43" fill="none" xmlns="http://www.w3.org/2000/svg">
<g filter="url(#filter0_d)">
<path d="M11.836 9.8C11.836 10.472 11.824 11.012 11.8 11.42C11.8 11.804 11.764 12.044 11.692 12.14C11.62 12.236 11.488 12.284 11.296 12.284H5.5V19.952H10.936C10.936 20.6 10.924 21.14 10.9 21.572C10.9 22.004 10.864 22.292 10.792 22.436C10.72 22.556 10.588 22.616 10.396 22.616H5.5V34.424C5.5 34.544 5.464 34.676 5.392 34.82C5.344 34.94 5.2 35 4.96 35H2.62V10.376C2.62 10.28 2.656 10.16 2.728 10.016C2.8 9.872 2.956 9.8 3.196 9.8H11.836Z" fill="black"/>
</g>
<g filter="url(#filter1_d)">
<path d="M26.544 30.356L25.8907 30.1047L25.7351 30.509L26.0276 30.8286L26.544 30.356ZM29.568 33.02L30.2626 33.1068L30.324 32.6154L29.8811 32.3939L29.568 33.02ZM28.812 34.64L28.2805 34.1844L28.2786 34.1866L28.812 34.64ZM25.032 33.056L25.5507 32.5859L25.0228 32.0035L24.5052 32.595L25.032 33.056ZM14.124 24.992L14.7101 25.3748L14.7136 25.3693L14.124 24.992ZM17.004 22.112L17.375 22.7056L17.9465 22.3484L17.6112 21.7637L17.004 22.112ZM15.744 10.844L15.3082 10.2961L15.3021 10.3011L15.744 10.844ZM25.356 12.428L24.6959 12.195L24.6897 12.2126L24.6844 12.2305L25.356 12.428ZM24.852 13.4L24.4492 13.9725L24.9569 14.3298L25.3723 13.8683L24.852 13.4ZM22.836 12.428L23.0222 11.7532L23.0222 11.7532L22.836 12.428ZM18.084 12.716L18.4664 13.3024L18.4723 13.2984L18.084 12.716ZM19.38 20.456L18.7711 20.8014L18.7726 20.8039L19.38 20.456ZM24.348 27.764L23.7987 28.1979L24.7374 29.3862L25.0344 27.9013L24.348 27.764ZM22.476 17.144L22.3419 16.457L21.19 16.6817L21.9352 17.5885L22.476 17.144ZM29.388 16.964H30.088V16.3199L29.4461 16.2664L29.388 16.964ZM29.424 17.36L30.1197 17.2827L30.1197 17.2827L29.424 17.36ZM29.172 19.016L29.6952 19.4811L29.6952 19.4811L29.172 19.016ZM27.948 19.34L27.9337 20.0399L27.9409 20.04H27.948V19.34ZM26.184 19.304L26.1983 18.6041L24.9883 18.5795L25.5702 19.6406L26.184 19.304ZM27.12 21.536L26.4478 21.7312L26.4478 21.7312L27.12 21.536ZM23.124 30.86L23.6826 31.2818L24.0161 30.8402L23.6634 30.4138L23.124 30.86ZM18.264 24.2L18.8499 23.8169L18.4495 23.2046L17.8555 23.6316L18.264 24.2ZM16.788 31.58L16.2396 32.015L16.2396 32.015L16.788 31.58ZM26.0276 30.8286C27.3232 32.2441 28.4074 33.2223 29.255 33.6461L29.8811 32.3939C29.2886 32.0977 28.3568 31.2999 27.0604 29.8834L26.0276 30.8286ZM28.8734 32.9332C28.8208 33.3541 28.6364 33.7693 28.2805 34.1844L29.3435 35.0956C29.8516 34.5027 30.1712 33.8379 30.2626 33.1068L28.8734 32.9332ZM28.2786 34.1866C27.909 34.6215 27.7035 34.66 27.66 34.66V36.06C28.3365 36.06 28.899 35.6185 29.3454 35.0934L28.2786 34.1866ZM27.66 34.66C27.778 34.66 27.7988 34.706 27.6627 34.6214C27.554 34.5539 27.3996 34.4375 27.1945 34.2576C26.7863 33.8998 26.2402 33.3468 25.5507 32.5859L24.5133 33.5261C25.2158 34.3012 25.8037 34.9002 26.2715 35.3104C26.5044 35.5145 26.7235 35.6861 26.9238 35.8106C27.0967 35.918 27.362 36.06 27.66 36.06V34.66ZM24.5052 32.595C23.3091 33.9621 21.71 34.66 19.632 34.66V36.06C22.066 36.06 24.0669 35.2219 25.5588 33.517L24.5052 32.595ZM19.632 34.66C17.5152 34.66 16.057 34.145 15.1251 33.2383C14.1969 32.3351 13.672 30.9272 13.672 28.88H12.272C12.272 31.1528 12.8571 32.9849 14.1489 34.2417C15.437 35.495 17.3088 36.06 19.632 36.06V34.66ZM13.672 28.88C13.672 27.5988 14.0171 26.436 14.7101 25.3748L13.5379 24.6092C12.6949 25.9 12.272 27.3292 12.272 28.88H13.672ZM14.7136 25.3693C15.4285 24.2524 16.3153 23.3679 17.375 22.7056L16.633 21.5184C15.3887 22.2961 14.3555 23.3316 13.5344 24.6147L14.7136 25.3693ZM17.6112 21.7637C15.7461 18.5118 14.896 16.1304 14.896 14.552H13.496C13.496 16.5256 14.5179 19.1842 16.3968 22.4603L17.6112 21.7637ZM14.896 14.552C14.896 13.0781 15.354 12.0641 16.1859 11.3869L15.3021 10.3011C14.07 11.3039 13.496 12.7619 13.496 14.552H14.896ZM16.1798 11.3918C17.0689 10.6845 18.3809 10.284 20.208 10.284V8.884C18.1951 8.884 16.5311 9.32346 15.3082 10.2962L16.1798 11.3918ZM20.208 10.284C21.7246 10.284 22.927 10.4482 23.8386 10.7521L24.2814 9.42392C23.177 9.0558 21.8114 8.884 20.208 8.884V10.284ZM23.8386 10.7521C24.3097 10.9091 24.6009 11.0612 24.7615 11.1874C24.9169 11.3095 24.872 11.3404 24.872 11.276H26.272C26.272 10.7556 25.9751 10.3605 25.6265 10.0866C25.2831 9.81679 24.8183 9.60291 24.2814 9.42392L23.8386 10.7521ZM24.872 11.276C24.872 11.5425 24.8187 11.8472 24.6959 12.195L26.0161 12.661C26.1813 12.1928 26.272 11.7295 26.272 11.276H24.872ZM24.6844 12.2305C24.585 12.5685 24.4591 12.7901 24.3317 12.9317L25.3723 13.8683C25.6769 13.5299 25.887 13.1035 26.0276 12.6255L24.6844 12.2305ZM25.2548 12.8275C24.5474 12.3297 23.8029 11.9686 23.0222 11.7532L22.6499 13.1028C23.2611 13.2714 23.8606 13.5583 24.4492 13.9725L25.2548 12.8275ZM23.0222 11.7532C22.2566 11.542 21.4249 11.44 20.532 11.44V12.84C21.3191 12.84 22.0234 12.93 22.6499 13.1028L23.0222 11.7532ZM20.532 11.44C19.4055 11.44 18.4324 11.6424 17.6957 12.1336L18.4723 13.2984C18.8876 13.0216 19.5465 12.84 20.532 12.84V11.44ZM17.7016 12.1297C16.8462 12.6876 16.556 13.7333 16.556 14.912H17.956C17.956 13.8827 18.2178 13.4644 18.4664 13.3023L17.7016 12.1297ZM16.556 14.912C16.556 15.6353 16.766 16.4895 17.1333 17.4484C17.5041 18.4161 18.0528 19.5352 18.7712 20.8014L19.9888 20.1106C19.2912 18.8808 18.7779 17.8279 18.4407 16.9476C18.1 16.0585 17.956 15.3887 17.956 14.912H16.556ZM18.7726 20.8039C20.207 23.3081 21.8828 25.7727 23.7987 28.1979L24.8973 27.3301C23.0212 24.9553 21.385 22.5479 19.9874 20.1081L18.7726 20.8039ZM25.0344 27.9013C25.2372 26.8873 25.336 25.7602 25.336 24.524H23.936C23.936 25.6878 23.8428 26.7207 23.6616 27.6267L25.0344 27.9013ZM25.336 24.524C25.336 21.2574 24.5939 18.6184 23.0168 16.6995L21.9352 17.5885C23.2381 19.1736 23.936 21.4546 23.936 24.524H25.336ZM22.6101 17.831C23.529 17.6517 24.845 17.556 26.58 17.556V16.156C24.811 16.156 23.391 16.2523 22.3419 16.457L22.6101 17.831ZM26.58 17.556C27.5716 17.556 28.488 17.5914 29.3299 17.6616L29.4461 16.2664C28.56 16.1926 27.6044 16.156 26.58 16.156V17.556ZM28.688 16.964C28.688 17.0603 28.7062 17.2389 28.7283 17.4373L30.1197 17.2827C30.108 17.1768 30.0995 17.095 30.0941 17.0356C30.0914 17.0059 30.0897 16.9841 30.0887 16.9692C30.0875 16.9513 30.088 16.9524 30.088 16.964H28.688ZM28.7283 17.4373C28.7494 17.6278 28.76 17.818 28.76 18.008H30.16C30.16 17.766 30.1466 17.5242 30.1197 17.2827L28.7283 17.4373ZM28.76 18.008C28.76 18.3868 28.6769 18.5194 28.6488 18.5509L29.6952 19.4811C30.0511 19.0806 30.16 18.5412 30.16 18.008H28.76ZM28.6488 18.5509C28.6773 18.5189 28.6719 18.5482 28.5429 18.5823C28.418 18.6154 28.2255 18.64 27.948 18.64V20.04C28.2945 20.04 28.618 20.0106 28.9011 19.9357C29.1801 19.8618 29.4747 19.7291 29.6952 19.4811L28.6488 18.5509ZM27.9623 18.6401L26.1983 18.6041L26.1697 20.0039L27.9337 20.0399L27.9623 18.6401ZM25.5702 19.6406C25.9559 20.3439 26.2473 21.0407 26.4478 21.7312L27.7922 21.3408C27.5607 20.5433 27.2281 19.7521 26.7978 18.9674L25.5702 19.6406ZM26.4478 21.7312C26.6354 22.3776 26.744 23.4132 26.744 24.884H28.144C28.144 23.3788 28.0366 22.1824 27.7922 21.3408L26.4478 21.7312ZM26.744 24.884C26.744 26.9067 26.4532 28.6421 25.8907 30.1047L27.1973 30.6073C27.8348 28.9499 28.144 27.0373 28.144 24.884H26.744ZM19.452 33.324C21.2165 33.324 22.6536 32.6446 23.6826 31.2818L22.5654 30.4382C21.8184 31.4274 20.8075 31.924 19.452 31.924V33.324ZM23.6634 30.4138C22.0747 28.4932 20.4701 26.2949 18.8499 23.8169L17.6781 24.5831C19.3219 27.0971 20.9573 29.3388 22.5846 31.3062L23.6634 30.4138ZM17.8555 23.6316C16.1179 24.8805 15.26 26.6866 15.26 28.952H16.66C16.66 27.0894 17.3381 25.7275 18.6725 24.7684L17.8555 23.6316ZM15.26 28.952C15.26 30.135 15.5718 31.173 16.2396 32.015L17.3364 31.145C16.9002 30.595 16.66 29.881 16.66 28.952H15.26ZM16.2396 32.015C16.9697 32.9356 18.1 33.324 19.452 33.324V31.924C18.356 31.924 17.7103 31.6164 17.3364 31.145L16.2396 32.015Z" fill="black"/>
</g>
<g filter="url(#filter2_d)">
<path d="M41.836 9.8C41.836 10.472 41.824 11.012 41.8 11.42C41.8 11.804 41.764 12.044 41.692 12.14C41.62 12.236 41.488 12.284 41.296 12.284H35.5V19.952H40.936C40.936 20.6 40.924 21.14 40.9 21.572C40.9 22.004 40.864 22.292 40.792 22.436C40.72 22.556 40.588 22.616 40.396 22.616H35.5V34.424C35.5 34.544 35.464 34.676 35.392 34.82C35.344 34.94 35.2 35 34.96 35H32.62V10.376C32.62 10.28 32.656 10.16 32.728 10.016C32.8 9.872 32.956 9.8 33.196 9.8H41.836Z" fill="black"/>
</g>
<g filter="url(#filter3_d)">
<path d="M47.312 10.56C47.312 10.5013 47.3253 10.464 47.352 10.448C47.384 10.4267 47.472 10.4133 47.616 10.408C47.76 10.4027 47.9547 10.4 48.2 10.4V15.84C48.2 15.888 48.1867 15.928 48.16 15.96C48.1333 15.9867 48.0933 16 48.04 16H47.352L46.504 13.856C46.3653 13.4987 46.2053 12.9067 46.024 12.08C46.0933 12.7627 46.128 13.376 46.128 13.92V15.84C46.128 15.8987 46.1147 15.9387 46.088 15.96C46.0613 15.976 45.9733 15.9867 45.824 15.992C45.68 15.9973 45.4853 16 45.24 16V10.56C45.24 10.4533 45.2933 10.4 45.4 10.4H46.104L46.944 12.504C47.0773 12.84 47.2347 13.4053 47.416 14.2C47.3467 13.5547 47.312 12.9627 47.312 12.424V10.56Z" fill="black"/>
</g>
<defs>
<filter id="filter0_d" x="0.620003" y="7.8" width="17.216" height="33.2" filterUnits="userSpaceOnUse" color-interpolation-filters="sRGB">
<feFlood flood-opacity="0" result="BackgroundImageFix"/>
<feColorMatrix in="SourceAlpha" type="matrix" values="0 0 0 0 0 0 0 0 0 0 0 0 0 0 0 0 0 0 127 0" result="hardAlpha"/>
<feOffset dx="2" dy="2"/>
<feGaussianBlur stdDeviation="2"/>
<feColorMatrix type="matrix" values="0 0 0 0 0 0 0 0 0 0 0 0 0 0 0 0 0 0 0.15 0"/>
<feBlend mode="normal" in2="BackgroundImageFix" result="effect1_dropShadow"/>
<feBlend mode="normal" in="SourceGraphic" in2="effect1_dropShadow" result="shape"/>
</filter>
<filter id="filter1_d" x="10.972" y="7.584" width="24.596" height="33.776" filterUnits="userSpaceOnUse" color-interpolation-filters="sRGB">
<feFlood flood-opacity="0" result="BackgroundImageFix"/>
<feColorMatrix in="SourceAlpha" type="matrix" values="0 0 0 0 0 0 0 0 0 0 0 0 0 0 0 0 0 0 127 0" result="hardAlpha"/>
<feOffset dx="2" dy="2"/>
<feGaussianBlur stdDeviation="2"/>
<feColorMatrix type="matrix" values="0 0 0 0 0 0 0 0 0 0 0 0 0 0 0 0 0 0 0.1 0"/>
<feBlend mode="normal" in2="BackgroundImageFix" result="effect1_dropShadow"/>
<feBlend mode="normal" in="SourceGraphic" in2="effect1_dropShadow" result="shape"/>
</filter>
<filter id="filter2_d" x="30.62" y="7.8" width="17.216" height="33.2" filterUnits="userSpaceOnUse" color-interpolation-filters="sRGB">
<feFlood flood-opacity="0" result="BackgroundImageFix"/>
<feColorMatrix in="SourceAlpha" type="matrix" values="0 0 0 0 0 0 0 0 0 0 0 0 0 0 0 0 0 0 127 0" result="hardAlpha"/>
<feOffset dx="2" dy="2"/>
<feGaussianBlur stdDeviation="2"/>
<feColorMatrix type="matrix" values="0 0 0 0 0 0 0 0 0 0 0 0 0 0 0 0 0 0 0.15 0"/>
<feBlend mode="normal" in2="BackgroundImageFix" result="effect1_dropShadow"/>
<feBlend mode="normal" in="SourceGraphic" in2="effect1_dropShadow" result="shape"/>
</filter>
<filter id="filter3_d" x="43.24" y="8.39999" width="10.96" height="13.6" filterUnits="userSpaceOnUse" color-interpolation-filters="sRGB">
<feFlood flood-opacity="0" result="BackgroundImageFix"/>
<feColorMatrix in="SourceAlpha" type="matrix" values="0 0 0 0 0 0 0 0 0 0 0 0 0 0 0 0 0 0 127 0" result="hardAlpha"/>
<feOffset dx="2" dy="2"/>
<feGaussianBlur stdDeviation="2"/>
<feColorMatrix type="matrix" values="0 0 0 0 0 0 0 0 0 0 0 0 0 0 0 0 0 0 0.2 0"/>
<feBlend mode="normal" in2="BackgroundImageFix" result="effect1_dropShadow"/>
<feBlend mode="normal" in="SourceGraphic" in2="effect1_dropShadow" result="shape"/>
</filter>
</defs>
</svg>
