<svg width="125" height="43" viewBox="0 0 125 43" fill="none" xmlns="http://www.w3.org/2000/svg">
<g filter="url(#filter0_d)">
<path d="M11.836 9.8C11.836 10.472 11.824 11.012 11.8 11.42C11.8 11.804 11.764 12.044 11.692 12.14C11.62 12.236 11.488 12.284 11.296 12.284H5.5V19.952H10.936C10.936 20.6 10.924 21.14 10.9 21.572C10.9 22.004 10.864 22.292 10.792 22.436C10.72 22.556 10.588 22.616 10.396 22.616H5.5V34.424C5.5 34.544 5.464 34.676 5.392 34.82C5.344 34.94 5.2 35 4.96 35H2.62V10.376C2.62 10.28 2.656 10.16 2.728 10.016C2.8 9.872 2.956 9.8 3.196 9.8H11.836ZM25.4105 34.46C25.4585 34.676 25.3985 34.832 25.2305 34.928C25.0625 35.024 24.7025 35.072 24.1505 35.072C23.5025 35.072 22.9265 35.048 22.4225 35L20.9105 28.592H14.6465L13.2425 34.496C13.1705 34.712 13.0505 34.868 12.8825 34.964C12.7385 35.036 12.4025 35.072 11.8745 35.072C11.3705 35.072 10.7705 35.036 10.0745 34.964L16.5185 10.196C16.5905 9.86 16.9505 9.692 17.5985 9.692C18.1505 9.692 18.6065 9.728 18.9665 9.8L25.4105 34.46ZM20.2625 25.964L19.0385 20.78C18.3425 17.852 17.9225 15.536 17.7785 13.832C17.5145 15.968 17.0825 18.284 16.4825 20.78L15.2585 25.964H20.2625ZM32.2787 35.36C30.9827 35.36 29.9027 35.084 29.0387 34.532C28.1987 33.956 27.5267 32.804 27.0227 31.076C26.5427 29.324 26.3027 26.78 26.3027 23.444C26.3027 19.628 26.6507 16.688 27.3467 14.624C28.0427 12.56 28.8947 11.18 29.9027 10.484C30.9347 9.788 32.0987 9.44 33.3947 9.44C34.5947 9.44 35.4587 9.632 35.9867 10.016C36.5147 10.4 36.7787 10.868 36.7787 11.42C36.7787 12.068 36.6227 12.656 36.3107 13.184C35.5667 12.584 34.7867 12.284 33.9707 12.284C33.0827 12.284 32.3027 12.572 31.6307 13.148C30.9587 13.7 30.4067 14.78 29.9747 16.388C29.5667 17.996 29.3627 20.3 29.3627 23.3C29.3627 25.652 29.5067 27.476 29.7947 28.772C30.0827 30.068 30.4907 30.956 31.0187 31.436C31.5467 31.916 32.1947 32.156 32.9627 32.156C33.6347 32.156 34.2707 32.048 34.8707 31.832C35.4707 31.592 35.9507 31.316 36.3107 31.004C36.5987 31.628 36.7427 32.216 36.7427 32.768C36.7427 33.488 36.3227 34.1 35.4827 34.604C34.6427 35.108 33.5747 35.36 32.2787 35.36ZM50.2455 9.8V11.924C50.2455 12.164 50.1975 12.332 50.1015 12.428C50.0055 12.5 49.8495 12.536 49.6335 12.536H45.2055V34.424C45.2055 34.64 45.1575 34.784 45.0615 34.856C44.9655 34.928 44.6775 34.976 44.1975 35C43.7175 35 43.0815 35 42.2895 35V12.536H37.3935V10.376C37.3935 9.992 37.5975 9.8 38.0055 9.8H50.2455Z" fill="black"/>
</g>
<g filter="url(#filter1_d)">
<path d="M65.544 30.356L64.8907 30.1047L64.7351 30.509L65.0276 30.8286L65.544 30.356ZM68.568 33.02L69.2626 33.1068L69.324 32.6154L68.8811 32.3939L68.568 33.02ZM67.812 34.64L67.2805 34.1844L67.2786 34.1866L67.812 34.64ZM64.032 33.056L64.5507 32.5859L64.0228 32.0035L63.5052 32.595L64.032 33.056ZM53.124 24.992L53.7101 25.3748L53.7136 25.3693L53.124 24.992ZM56.004 22.112L56.375 22.7056L56.9465 22.3484L56.6112 21.7637L56.004 22.112ZM54.744 10.844L54.3082 10.2961L54.3021 10.3011L54.744 10.844ZM64.356 12.428L63.6959 12.195L63.6897 12.2126L63.6844 12.2305L64.356 12.428ZM63.852 13.4L63.4492 13.9725L63.9569 14.3298L64.3723 13.8683L63.852 13.4ZM61.836 12.428L62.0222 11.7532L62.0222 11.7532L61.836 12.428ZM57.084 12.716L57.4664 13.3024L57.4723 13.2984L57.084 12.716ZM58.38 20.456L57.7711 20.8014L57.7726 20.8039L58.38 20.456ZM63.348 27.764L62.7987 28.1979L63.7374 29.3862L64.0344 27.9013L63.348 27.764ZM61.476 17.144L61.3419 16.457L60.19 16.6817L60.9352 17.5885L61.476 17.144ZM68.388 16.964H69.088V16.3199L68.4461 16.2664L68.388 16.964ZM68.424 17.36L69.1197 17.2827L69.1197 17.2827L68.424 17.36ZM68.172 19.016L68.6952 19.4811L68.6952 19.4811L68.172 19.016ZM66.948 19.34L66.9337 20.0399L66.9409 20.04H66.948V19.34ZM65.184 19.304L65.1983 18.6041L63.9883 18.5795L64.5702 19.6406L65.184 19.304ZM66.12 21.536L65.4478 21.7312L65.4478 21.7312L66.12 21.536ZM62.124 30.86L62.6826 31.2818L63.0161 30.8402L62.6634 30.4138L62.124 30.86ZM57.264 24.2L57.8499 23.8169L57.4495 23.2046L56.8555 23.6316L57.264 24.2ZM55.788 31.58L55.2396 32.015L55.2396 32.015L55.788 31.58ZM65.0276 30.8286C66.3232 32.2441 67.4074 33.2223 68.255 33.6461L68.8811 32.3939C68.2886 32.0977 67.3568 31.2999 66.0604 29.8834L65.0276 30.8286ZM67.8734 32.9332C67.8208 33.3541 67.6364 33.7693 67.2805 34.1844L68.3435 35.0956C68.8516 34.5027 69.1712 33.8379 69.2626 33.1068L67.8734 32.9332ZM67.2786 34.1866C66.909 34.6215 66.7035 34.66 66.66 34.66V36.06C67.3365 36.06 67.899 35.6185 68.3454 35.0934L67.2786 34.1866ZM66.66 34.66C66.778 34.66 66.7988 34.706 66.6627 34.6214C66.554 34.5539 66.3996 34.4375 66.1945 34.2576C65.7863 33.8998 65.2402 33.3468 64.5507 32.5859L63.5133 33.5261C64.2158 34.3012 64.8037 34.9002 65.2715 35.3104C65.5044 35.5145 65.7235 35.6861 65.9238 35.8106C66.0967 35.918 66.362 36.06 66.66 36.06V34.66ZM63.5052 32.595C62.3091 33.9621 60.71 34.66 58.632 34.66V36.06C61.066 36.06 63.0669 35.2219 64.5588 33.517L63.5052 32.595ZM58.632 34.66C56.5152 34.66 55.057 34.145 54.1251 33.2383C53.1969 32.3351 52.672 30.9272 52.672 28.88H51.272C51.272 31.1528 51.8571 32.9849 53.1489 34.2417C54.437 35.495 56.3088 36.06 58.632 36.06V34.66ZM52.672 28.88C52.672 27.5988 53.0171 26.436 53.7101 25.3748L52.5379 24.6092C51.6949 25.9 51.272 27.3292 51.272 28.88H52.672ZM53.7136 25.3693C54.4285 24.2524 55.3153 23.3679 56.375 22.7056L55.633 21.5184C54.3887 22.2961 53.3555 23.3316 52.5344 24.6147L53.7136 25.3693ZM56.6112 21.7637C54.7461 18.5118 53.896 16.1304 53.896 14.552H52.496C52.496 16.5256 53.5179 19.1842 55.3968 22.4603L56.6112 21.7637ZM53.896 14.552C53.896 13.0781 54.354 12.0641 55.1859 11.3869L54.3021 10.3011C53.07 11.3039 52.496 12.7619 52.496 14.552H53.896ZM55.1798 11.3918C56.0689 10.6845 57.3809 10.284 59.208 10.284V8.884C57.1951 8.884 55.5311 9.32346 54.3082 10.2962L55.1798 11.3918ZM59.208 10.284C60.7246 10.284 61.927 10.4482 62.8386 10.7521L63.2814 9.42392C62.177 9.0558 60.8114 8.884 59.208 8.884V10.284ZM62.8386 10.7521C63.3097 10.9091 63.6009 11.0612 63.7615 11.1874C63.9169 11.3095 63.872 11.3404 63.872 11.276H65.272C65.272 10.7556 64.9751 10.3605 64.6265 10.0866C64.2831 9.81679 63.8183 9.60291 63.2814 9.42392L62.8386 10.7521ZM63.872 11.276C63.872 11.5425 63.8187 11.8472 63.6959 12.195L65.0161 12.661C65.1813 12.1928 65.272 11.7295 65.272 11.276H63.872ZM63.6844 12.2305C63.585 12.5685 63.4591 12.7901 63.3317 12.9317L64.3723 13.8683C64.6769 13.5299 64.887 13.1035 65.0276 12.6255L63.6844 12.2305ZM64.2548 12.8275C63.5474 12.3297 62.8029 11.9686 62.0222 11.7532L61.6499 13.1028C62.2611 13.2714 62.8606 13.5583 63.4492 13.9725L64.2548 12.8275ZM62.0222 11.7532C61.2566 11.542 60.4249 11.44 59.532 11.44V12.84C60.3191 12.84 61.0234 12.93 61.6499 13.1028L62.0222 11.7532ZM59.532 11.44C58.4055 11.44 57.4324 11.6424 56.6957 12.1336L57.4723 13.2984C57.8876 13.0216 58.5465 12.84 59.532 12.84V11.44ZM56.7016 12.1297C55.8462 12.6876 55.556 13.7333 55.556 14.912H56.956C56.956 13.8827 57.2178 13.4644 57.4664 13.3023L56.7016 12.1297ZM55.556 14.912C55.556 15.6353 55.766 16.4895 56.1333 17.4484C56.5041 18.4161 57.0528 19.5352 57.7712 20.8014L58.9888 20.1106C58.2912 18.8808 57.7779 17.8279 57.4407 16.9476C57.1 16.0585 56.956 15.3887 56.956 14.912H55.556ZM57.7726 20.8039C59.207 23.3081 60.8828 25.7727 62.7987 28.1979L63.8973 27.3301C62.0212 24.9553 60.385 22.5479 58.9874 20.1081L57.7726 20.8039ZM64.0344 27.9013C64.2372 26.8873 64.336 25.7602 64.336 24.524H62.936C62.936 25.6878 62.8428 26.7207 62.6616 27.6267L64.0344 27.9013ZM64.336 24.524C64.336 21.2574 63.5939 18.6184 62.0168 16.6995L60.9352 17.5885C62.2381 19.1736 62.936 21.4546 62.936 24.524H64.336ZM61.6101 17.831C62.529 17.6517 63.845 17.556 65.58 17.556V16.156C63.811 16.156 62.391 16.2523 61.3419 16.457L61.6101 17.831ZM65.58 17.556C66.5716 17.556 67.488 17.5914 68.3299 17.6616L68.4461 16.2664C67.56 16.1926 66.6044 16.156 65.58 16.156V17.556ZM67.688 16.964C67.688 17.0603 67.7062 17.2389 67.7283 17.4373L69.1197 17.2827C69.108 17.1768 69.0995 17.095 69.0941 17.0356C69.0914 17.0059 69.0897 16.9841 69.0887 16.9692C69.0875 16.9513 69.088 16.9524 69.088 16.964H67.688ZM67.7283 17.4373C67.7494 17.6278 67.76 17.818 67.76 18.008H69.16C69.16 17.766 69.1466 17.5242 69.1197 17.2827L67.7283 17.4373ZM67.76 18.008C67.76 18.3868 67.6769 18.5194 67.6488 18.5509L68.6952 19.4811C69.0511 19.0806 69.16 18.5412 69.16 18.008H67.76ZM67.6488 18.5509C67.6773 18.5189 67.6719 18.5482 67.5429 18.5823C67.418 18.6154 67.2255 18.64 66.948 18.64V20.04C67.2945 20.04 67.618 20.0106 67.9011 19.9357C68.1801 19.8618 68.4747 19.7291 68.6952 19.4811L67.6488 18.5509ZM66.9623 18.6401L65.1983 18.6041L65.1697 20.0039L66.9337 20.0399L66.9623 18.6401ZM64.5702 19.6406C64.9559 20.3439 65.2473 21.0407 65.4478 21.7312L66.7922 21.3408C66.5607 20.5433 66.2281 19.7521 65.7978 18.9674L64.5702 19.6406ZM65.4478 21.7312C65.6354 22.3776 65.744 23.4132 65.744 24.884H67.144C67.144 23.3788 67.0366 22.1824 66.7922 21.3408L65.4478 21.7312ZM65.744 24.884C65.744 26.9067 65.4532 28.6421 64.8907 30.1047L66.1973 30.6073C66.8348 28.9499 67.144 27.0373 67.144 24.884H65.744ZM58.452 33.324C60.2165 33.324 61.6536 32.6446 62.6826 31.2818L61.5654 30.4382C60.8184 31.4274 59.8075 31.924 58.452 31.924V33.324ZM62.6634 30.4138C61.0747 28.4932 59.4701 26.2949 57.8499 23.8169L56.6781 24.5831C58.3219 27.0971 59.9573 29.3388 61.5846 31.3062L62.6634 30.4138ZM56.8555 23.6316C55.1179 24.8805 54.26 26.6866 54.26 28.952H55.66C55.66 27.0894 56.3381 25.7275 57.6725 24.7684L56.8555 23.6316ZM54.26 28.952C54.26 30.135 54.5718 31.173 55.2396 32.015L56.3364 31.145C55.9002 30.595 55.66 29.881 55.66 28.952H54.26ZM55.2396 32.015C55.9697 32.9356 57.1 33.324 58.452 33.324V31.924C57.356 31.924 56.7103 31.6164 56.3364 31.145L55.2396 32.015Z" fill="black"/>
</g>
<g filter="url(#filter2_d)">
<path d="M80.836 9.8C80.836 10.472 80.824 11.012 80.8 11.42C80.8 11.804 80.764 12.044 80.692 12.14C80.62 12.236 80.488 12.284 80.296 12.284H74.5V19.952H79.936C79.936 20.6 79.924 21.14 79.9 21.572C79.9 22.004 79.864 22.292 79.792 22.436C79.72 22.556 79.588 22.616 79.396 22.616H74.5V34.424C74.5 34.544 74.464 34.676 74.392 34.82C74.344 34.94 74.2 35 73.96 35H71.62V10.376C71.62 10.28 71.656 10.16 71.728 10.016C71.8 9.872 71.956 9.8 72.196 9.8H80.836ZM82.8692 11.132C82.8692 10.652 82.9172 10.328 83.0132 10.16C83.1092 9.992 83.3252 9.896 83.6612 9.872C84.0212 9.824 84.7412 9.8 85.8212 9.8V34.424C85.8212 34.64 85.7732 34.784 85.6772 34.856C85.5812 34.928 85.2932 34.976 84.8132 35C84.3332 35 83.6852 35 82.8692 35V11.132ZM94.4232 35.36C93.1272 35.36 92.0472 35.084 91.1832 34.532C90.3432 33.956 89.6712 32.804 89.1672 31.076C88.6872 29.324 88.4472 26.78 88.4472 23.444C88.4472 19.628 88.7952 16.688 89.4912 14.624C90.1872 12.56 91.0392 11.18 92.0472 10.484C93.0792 9.788 94.2432 9.44 95.5392 9.44C96.7392 9.44 97.6032 9.632 98.1312 10.016C98.6592 10.4 98.9232 10.868 98.9232 11.42C98.9232 12.068 98.7672 12.656 98.4552 13.184C97.7112 12.584 96.9312 12.284 96.1152 12.284C95.2272 12.284 94.4472 12.572 93.7752 13.148C93.1032 13.7 92.5512 14.78 92.1192 16.388C91.7112 17.996 91.5072 20.3 91.5072 23.3C91.5072 25.652 91.6512 27.476 91.9392 28.772C92.2272 30.068 92.6352 30.956 93.1632 31.436C93.6912 31.916 94.3392 32.156 95.1072 32.156C95.7792 32.156 96.4152 32.048 97.0152 31.832C97.6152 31.592 98.0952 31.316 98.4552 31.004C98.7432 31.628 98.8872 32.216 98.8872 32.768C98.8872 33.488 98.4672 34.1 97.6272 34.604C96.7872 35.108 95.7192 35.36 94.4232 35.36ZM112.39 9.8V11.924C112.39 12.164 112.342 12.332 112.246 12.428C112.15 12.5 111.994 12.536 111.778 12.536H107.35V34.424C107.35 34.64 107.302 34.784 107.206 34.856C107.11 34.928 106.822 34.976 106.342 35C105.862 35 105.226 35 104.434 35V12.536H99.538V10.376C99.538 9.992 99.742 9.8 100.15 9.8H112.39Z" fill="black"/>
</g>
<g filter="url(#filter3_d)">
<path d="M117.312 10.56C117.312 10.5013 117.325 10.464 117.352 10.448C117.384 10.4267 117.472 10.4133 117.616 10.408C117.76 10.4027 117.955 10.4 118.2 10.4V15.84C118.2 15.888 118.187 15.928 118.16 15.96C118.133 15.9867 118.093 16 118.04 16H117.352L116.504 13.856C116.365 13.4987 116.205 12.9067 116.024 12.08C116.093 12.7627 116.128 13.376 116.128 13.92V15.84C116.128 15.8987 116.115 15.9387 116.088 15.96C116.061 15.976 115.973 15.9867 115.824 15.992C115.68 15.9973 115.485 16 115.24 16V10.56C115.24 10.4533 115.293 10.4 115.4 10.4H116.104L116.944 12.504C117.077 12.84 117.235 13.4053 117.416 14.2C117.347 13.5547 117.312 12.9627 117.312 12.424V10.56Z" fill="black"/>
</g>
<defs>
<filter id="filter0_d" x="0.620003" y="7.44" width="55.6255" height="33.92" filterUnits="userSpaceOnUse" color-interpolation-filters="sRGB">
<feFlood flood-opacity="0" result="BackgroundImageFix"/>
<feColorMatrix in="SourceAlpha" type="matrix" values="0 0 0 0 0 0 0 0 0 0 0 0 0 0 0 0 0 0 127 0"/>
<feOffset dx="2" dy="2"/>
<feGaussianBlur stdDeviation="2"/>
<feColorMatrix type="matrix" values="0 0 0 0 0 0 0 0 0 0 0 0 0 0 0 0 0 0 0.15 0"/>
<feBlend mode="normal" in2="BackgroundImageFix" result="effect1_dropShadow"/>
<feBlend mode="normal" in="SourceGraphic" in2="effect1_dropShadow" result="shape"/>
</filter>
<filter id="filter1_d" x="49.972" y="7.58398" width="24.596" height="33.776" filterUnits="userSpaceOnUse" color-interpolation-filters="sRGB">
<feFlood flood-opacity="0" result="BackgroundImageFix"/>
<feColorMatrix in="SourceAlpha" type="matrix" values="0 0 0 0 0 0 0 0 0 0 0 0 0 0 0 0 0 0 127 0"/>
<feOffset dx="2" dy="2"/>
<feGaussianBlur stdDeviation="2"/>
<feColorMatrix type="matrix" values="0 0 0 0 0 0 0 0 0 0 0 0 0 0 0 0 0 0 0.1 0"/>
<feBlend mode="normal" in2="BackgroundImageFix" result="effect1_dropShadow"/>
<feBlend mode="normal" in="SourceGraphic" in2="effect1_dropShadow" result="shape"/>
</filter>
<filter id="filter2_d" x="69.62" y="7.44" width="48.77" height="33.92" filterUnits="userSpaceOnUse" color-interpolation-filters="sRGB">
<feFlood flood-opacity="0" result="BackgroundImageFix"/>
<feColorMatrix in="SourceAlpha" type="matrix" values="0 0 0 0 0 0 0 0 0 0 0 0 0 0 0 0 0 0 127 0"/>
<feOffset dx="2" dy="2"/>
<feGaussianBlur stdDeviation="2"/>
<feColorMatrix type="matrix" values="0 0 0 0 0 0 0 0 0 0 0 0 0 0 0 0 0 0 0.15 0"/>
<feBlend mode="normal" in2="BackgroundImageFix" result="effect1_dropShadow"/>
<feBlend mode="normal" in="SourceGraphic" in2="effect1_dropShadow" result="shape"/>
</filter>
<filter id="filter3_d" x="113.24" y="8.39999" width="10.96" height="13.6" filterUnits="userSpaceOnUse" color-interpolation-filters="sRGB">
<feFlood flood-opacity="0" result="BackgroundImageFix"/>
<feColorMatrix in="SourceAlpha" type="matrix" values="0 0 0 0 0 0 0 0 0 0 0 0 0 0 0 0 0 0 127 0"/>
<feOffset dx="2" dy="2"/>
<feGaussianBlur stdDeviation="2"/>
<feColorMatrix type="matrix" values="0 0 0 0 0 0 0 0 0 0 0 0 0 0 0 0 0 0 0.2 0"/>
<feBlend mode="normal" in2="BackgroundImageFix" result="effect1_dropShadow"/>
<feBlend mode="normal" in="SourceGraphic" in2="effect1_dropShadow" result="shape"/>
</filter>
</defs>
</svg>
