<svg xmlns="http://www.w3.org/2000/svg" width="24" height="24" fill="none" viewBox="0 0 24 24"><path fill="#333" d="M21.1744 15.3008C21.1883 15.2687 21.2 15.2356 21.2093 15.2018C21.9305 13.1272 21.9302 10.87 21.2084 8.79572C21.1994 8.76351 21.1883 8.73194 21.1751 8.70122C20.4941 6.81414 19.2485 5.18257 17.6076 4.02833C15.9667 2.87408 14.0101 2.25317 12.0039 2.25L12 2.24653L11.9961 2.25C9.99008 2.25317 8.03372 2.87394 6.39292 4.02795C4.75211 5.18196 3.50645 6.81322 2.82525 8.7C2.81162 8.73152 2.80019 8.76394 2.79103 8.79703C2.06917 10.8726 2.06963 13.1312 2.79234 15.2065C2.80104 15.2374 2.81172 15.2676 2.82431 15.2971C3.50508 17.1846 4.75067 18.8165 6.39168 19.9711C8.0327 21.1257 9.98949 21.7468 11.996 21.75L12 21.7535L12.004 21.75C14.0098 21.7468 15.966 21.1261 17.6067 19.9723C19.2474 18.8184 20.4931 17.1874 21.1744 15.3008V15.3008ZM9.60731 15.75H14.3927C13.9067 17.2404 13.0886 18.6009 12 19.7289C10.9114 18.6009 10.0933 17.2404 9.60731 15.75V15.75ZM9.21469 14.25C8.92849 12.7637 8.92849 11.2364 9.21469 9.75H14.7853C15.0715 11.2364 15.0715 12.7637 14.7853 14.25H9.21469ZM3.75 12C3.74947 11.2392 3.85444 10.482 4.06191 9.75H7.68487C7.43841 11.2399 7.43841 12.7601 7.68487 14.25H4.06191C3.85444 13.518 3.74947 12.7608 3.75 12ZM14.3927 8.25H9.60731C10.0933 6.75968 10.9114 5.39921 12 4.27125C13.0885 5.39921 13.9067 6.75968 14.3927 8.25V8.25ZM16.3151 9.75H19.9381C20.3539 11.2212 20.3539 12.7788 19.9381 14.25H16.3151C16.5616 12.7601 16.5616 11.2399 16.3151 9.75V9.75ZM19.3474 8.25H15.9757C15.5267 6.66957 14.7565 5.19874 13.7133 3.92944C14.914 4.18674 16.0425 4.7079 17.0169 5.45517C17.9914 6.20244 18.7874 7.1571 19.3474 8.25V8.25ZM10.2867 3.92944C9.2435 5.19874 8.4733 6.66957 8.02425 8.25H4.65262C5.21257 7.1571 6.0086 6.20244 6.98306 5.45517C7.95751 4.7079 9.08598 4.18674 10.2867 3.92944V3.92944ZM4.65262 15.75H8.02434C8.4734 17.3305 9.2436 18.8013 10.2868 20.0707C9.08605 19.8134 7.95755 19.2922 6.98308 18.5449C6.00861 17.7976 5.21257 16.8429 4.65262 15.75V15.75ZM13.7132 20.0707C14.7564 18.8013 15.5266 17.3305 15.9757 15.75H19.3474C18.7874 16.8429 17.9914 17.7976 17.0169 18.5449C16.0424 19.2922 14.9139 19.8134 13.7132 20.0707V20.0707Z"/></svg>