<svg width="24" height="24" viewBox="0 0 24 24" fill="none" xmlns="http://www.w3.org/2000/svg">
<path d="M19.2437 16.1897L10.7477 16.1894V16.1897L10.7455 16.1894C10.6011 16.1895 10.4627 16.2469 10.3606 16.349C10.2584 16.4511 10.2011 16.5896 10.201 16.734C10.201 16.7441 10.2034 16.7532 10.2039 16.763V19.2432H10.2065C10.2065 19.387 10.2634 19.5249 10.3647 19.6269C10.4661 19.7289 10.6037 19.7866 10.7475 19.7875V19.7878H19.2435V19.7873C19.3872 19.7864 19.5248 19.7286 19.6262 19.6267C19.7275 19.5247 19.7844 19.3867 19.7844 19.243V16.758C19.7849 16.7498 19.7868 16.7419 19.7868 16.7338C19.7868 16.5896 19.7296 16.4514 19.6278 16.3494C19.526 16.2474 19.3878 16.1899 19.2437 16.1897V16.1897Z" fill="#333333"/>
<path d="M7.26671 16.189H4.75727C4.61286 16.189 4.47439 16.2464 4.37228 16.3485C4.27016 16.4506 4.21277 16.5891 4.21271 16.7335V19.2425C4.21271 19.3869 4.27005 19.5253 4.37212 19.6275C4.47419 19.7296 4.61264 19.787 4.75703 19.787H7.26623C7.41063 19.787 7.54911 19.7296 7.65122 19.6275C7.75333 19.5254 7.81072 19.3869 7.81079 19.2425V16.7335C7.81085 16.662 7.79682 16.5912 7.76951 16.5252C7.7422 16.4591 7.70213 16.3991 7.6516 16.3485C7.60107 16.2979 7.54107 16.2578 7.47503 16.2304C7.40899 16.2031 7.3382 16.189 7.26671 16.189V16.189Z" fill="#333333"/>
<path d="M19.2437 10.1921L10.7477 10.1918V10.1921L10.7455 10.1918C10.6011 10.1919 10.4627 10.2493 10.3606 10.3514C10.2584 10.4535 10.2011 10.592 10.201 10.7364C10.201 10.7465 10.2034 10.7556 10.2039 10.7654V13.2456H10.2065C10.2065 13.3894 10.2634 13.5273 10.3647 13.6293C10.4661 13.7313 10.6037 13.789 10.7475 13.7899V13.7902H19.2435V13.7897C19.3872 13.7888 19.5248 13.7311 19.6262 13.6291C19.7275 13.5271 19.7844 13.3891 19.7844 13.2454V10.7604C19.7849 10.7522 19.7868 10.7443 19.7868 10.7362C19.7868 10.592 19.7296 10.4538 19.6278 10.3518C19.526 10.2498 19.3878 10.1923 19.2437 10.1921V10.1921Z" fill="#333333"/>
<path d="M7.26671 10.1914H4.75727C4.61286 10.1914 4.47439 10.2488 4.37228 10.3509C4.27016 10.453 4.21277 10.5915 4.21271 10.7359V13.2449C4.21271 13.3893 4.27005 13.5277 4.37212 13.6299C4.47419 13.732 4.61264 13.7894 4.75703 13.7894H7.26623C7.41063 13.7894 7.54911 13.732 7.65122 13.6299C7.75333 13.5278 7.81072 13.3893 7.81079 13.2449V10.7359C7.81085 10.6644 7.79682 10.5936 7.76951 10.5276C7.7422 10.4615 7.70213 10.4015 7.6516 10.3509C7.60107 10.3003 7.54107 10.2602 7.47503 10.2328C7.40899 10.2054 7.3382 10.1914 7.26671 10.1914V10.1914Z" fill="#333333"/>
<path d="M10.2039 7.26624H10.2065C10.2065 7.41002 10.2634 7.54797 10.3647 7.64995C10.4661 7.75193 10.6037 7.80967 10.7475 7.81056V7.8108H19.2435V7.81032C19.3872 7.80943 19.5248 7.75169 19.6262 7.64971C19.7275 7.54773 19.7844 7.40978 19.7844 7.266V4.78104C19.7849 4.77288 19.7868 4.76496 19.7868 4.7568C19.7868 4.61262 19.7295 4.47436 19.6277 4.37232C19.5258 4.27028 19.3876 4.2128 19.2435 4.21248V4.21224H10.7475V4.21248L10.7453 4.21224C10.6009 4.21231 10.4624 4.2697 10.3603 4.37181C10.2582 4.47392 10.2008 4.6124 10.2007 4.7568C10.2007 4.76688 10.2031 4.776 10.2036 4.78584V7.26624H10.2039Z" fill="#333333"/>
<path d="M7.26671 4.21224H4.75727C4.61286 4.21231 4.47439 4.2697 4.37228 4.37181C4.27016 4.47392 4.21277 4.6124 4.21271 4.7568V7.26576C4.21271 7.41015 4.27005 7.54862 4.37212 7.65074C4.47419 7.75286 4.61264 7.81026 4.75703 7.81032H7.26623C7.41063 7.81026 7.54911 7.75286 7.65122 7.65075C7.75333 7.54864 7.81072 7.41017 7.81079 7.26576V4.7568C7.81088 4.6853 7.79688 4.61449 7.76957 4.54841C7.74227 4.48233 7.70221 4.42228 7.65167 4.3717C7.60114 4.32112 7.54112 4.281 7.47507 4.25364C7.40901 4.22628 7.33821 4.21221 7.26671 4.21224V4.21224Z" fill="#333333"/>
</svg>
