<svg width="24" height="24" viewBox="0 0 24 24" fill="none" xmlns="http://www.w3.org/2000/svg">
<path d="M18.3 5.71C18.2075 5.6173 18.0976 5.54375 17.9766 5.49357C17.8556 5.44338 17.726 5.41755 17.595 5.41755C17.464 5.41755 17.3343 5.44338 17.2134 5.49357C17.0924 5.54375 16.9825 5.6173 16.89 5.71L12 10.59L7.10999 5.7C7.01741 5.60742 6.9075 5.53398 6.78654 5.48387C6.66557 5.43377 6.53593 5.40798 6.40499 5.40798C6.27406 5.40798 6.14442 5.43377 6.02345 5.48387C5.90249 5.53398 5.79258 5.60742 5.69999 5.7C5.60741 5.79258 5.53397 5.90249 5.48387 6.02346C5.43376 6.14442 5.40797 6.27407 5.40797 6.405C5.40797 6.53593 5.43376 6.66558 5.48387 6.78654C5.53397 6.90751 5.60741 7.01742 5.69999 7.11L10.59 12L5.69999 16.89C5.60741 16.9826 5.53397 17.0925 5.48387 17.2135C5.43376 17.3344 5.40797 17.4641 5.40797 17.595C5.40797 17.7259 5.43376 17.8556 5.48387 17.9765C5.53397 18.0975 5.60741 18.2074 5.69999 18.3C5.79258 18.3926 5.90249 18.466 6.02345 18.5161C6.14442 18.5662 6.27406 18.592 6.40499 18.592C6.53593 18.592 6.66557 18.5662 6.78654 18.5161C6.9075 18.466 7.01741 18.3926 7.10999 18.3L12 13.41L16.89 18.3C16.9826 18.3926 17.0925 18.466 17.2135 18.5161C17.3344 18.5662 17.4641 18.592 17.595 18.592C17.7259 18.592 17.8556 18.5662 17.9765 18.5161C18.0975 18.466 18.2074 18.3926 18.3 18.3C18.3926 18.2074 18.466 18.0975 18.5161 17.9765C18.5662 17.8556 18.592 17.7259 18.592 17.595C18.592 17.4641 18.5662 17.3344 18.5161 17.2135C18.466 17.0925 18.3926 16.9826 18.3 16.89L13.41 12L18.3 7.11C18.68 6.73 18.68 6.09 18.3 5.71V5.71Z" fill="#333333"/>
</svg>
