<svg xmlns="http://www.w3.org/2000/svg" width="24" height="24" fill="none" viewBox="0 0 24 24"><path fill="#8A8A8A" d="M11 5.00008C10.2121 5.00008 9.43185 5.15527 8.7039 5.4568C7.97595 5.75833 7.31451 6.20028 6.75736 6.75744C6.20021 7.31459 5.75825 7.97602 5.45672 8.70398C5.15519 9.43193 5 10.2121 5 11.0001C5 11.788 5.15519 12.5682 5.45672 13.2962C5.75825 14.0241 6.20021 14.6856 6.75736 15.2427C7.31451 15.7999 7.97595 16.2418 8.7039 16.5434C9.43185 16.8449 10.2121 17.0001 11 17.0001C12.5913 17.0001 14.1174 16.3679 15.2426 15.2427C16.3679 14.1175 17 12.5914 17 11.0001C17 9.40878 16.3679 7.88265 15.2426 6.75744C14.1174 5.63222 12.5913 5.00008 11 5.00008V5.00008ZM3 11.0001C3.00018 9.72694 3.30422 8.47222 3.88684 7.34022C4.46946 6.20821 5.31384 5.2316 6.3498 4.49156C7.38577 3.75152 8.5834 3.26941 9.84315 3.08531C11.1029 2.9012 12.3884 3.02042 13.5928 3.43305C14.7973 3.84568 15.8858 4.53981 16.768 5.45774C17.6502 6.37568 18.3006 7.49091 18.6651 8.71075C19.0296 9.9306 19.0977 11.2198 18.8638 12.4713C18.6298 13.7227 18.1006 14.9003 17.32 15.9061L20.707 19.2931C20.8892 19.4817 20.99 19.7343 20.9877 19.9965C20.9854 20.2587 20.8802 20.5095 20.6948 20.6949C20.5094 20.8803 20.2586 20.9855 19.9964 20.9878C19.7342 20.99 19.4816 20.8892 19.293 20.7071L15.906 17.3201C14.7235 18.2382 13.307 18.806 11.8178 18.9591C10.3285 19.1121 8.82619 18.8442 7.48165 18.1858C6.1371 17.5273 5.00429 16.5049 4.21202 15.2346C3.41976 13.9643 2.99983 12.4972 3 11.0001V11.0001Z"/></svg>