<svg width="24" height="24" viewBox="0 0 24 24" fill="none" xmlns="http://www.w3.org/2000/svg">
<path d="M2 20H4C4.55 20 5 19.55 5 19V10C5 9.45 4.55 9 4 9H2V20ZM21.83 12.88C21.94 12.63 22 12.36 22 12.08V11C22 9.9 21.1 9 20 9H14.5L15.42 4.35C15.47 4.13 15.44 3.89 15.34 3.69C15.1126 3.23961 14.8156 2.82789 14.46 2.47L14 2L7.59 8.41C7.21 8.79 7 9.3 7 9.83V17.67C7.00264 18.2889 7.25035 18.8815 7.6889 19.3182C8.12744 19.7548 8.72112 20 9.34 20H17.45C18.15 20 18.81 19.63 19.17 19.03L21.83 12.88V12.88Z" fill="#333333"/>
</svg>
