<svg xmlns="http://www.w3.org/2000/svg" width="24" height="24" fill="none" viewBox="0 0 24 24"><path fill="#333" d="M7.26671 4.21272H4.75727C4.61286 4.21279 4.47439 4.27018 4.37228 4.37229C4.27016 4.4744 4.21277 4.61288 4.21271 4.75728V7.26624C4.21277 7.41065 4.27016 7.54912 4.37228 7.65123C4.47439 7.75335 4.61286 7.81074 4.75727 7.8108H7.26647C7.41087 7.81074 7.54935 7.75335 7.65146 7.65123C7.75357 7.54912 7.81096 7.41065 7.81103 7.26624V4.75752C7.81106 4.68601 7.797 4.61519 7.76967 4.54911C7.74233 4.48303 7.70224 4.42298 7.6517 4.37239C7.60115 4.3218 7.54114 4.28166 7.47508 4.25427C7.40903 4.22687 7.33822 4.21275 7.26671 4.21272V4.21272Z"/><path fill="#333" d="M13.2545 4.21272H10.7453C10.6009 4.21279 10.4624 4.27018 10.3603 4.37229C10.2582 4.4744 10.2008 4.61288 10.2007 4.75728V7.26624C10.2008 7.41065 10.2582 7.54912 10.3603 7.65123C10.4624 7.75335 10.6009 7.81074 10.7453 7.8108H13.2545C13.3989 7.81074 13.5374 7.75335 13.6395 7.65123C13.7416 7.54912 13.799 7.41065 13.799 7.26624V4.75752C13.7991 4.68599 13.785 4.61515 13.7577 4.54906C13.7303 4.48296 13.6902 4.4229 13.6396 4.37231C13.5891 4.32171 13.529 4.28158 13.4629 4.2542C13.3968 4.22682 13.326 4.21272 13.2545 4.21272V4.21272Z"/><path fill="#333" d="M19.787 4.75728C19.787 4.61288 19.7296 4.4744 19.6275 4.37229C19.5254 4.27018 19.3869 4.21279 19.2425 4.21272H16.733C16.5886 4.21279 16.4502 4.27018 16.348 4.37229C16.2459 4.4744 16.1885 4.61288 16.1885 4.75728V7.26648C16.1885 7.41093 16.2458 7.54947 16.348 7.65163C16.4501 7.75379 16.5886 7.81122 16.733 7.81128H19.2422C19.3866 7.81122 19.5251 7.75383 19.6272 7.65171C19.7293 7.5496 19.7867 7.41113 19.7868 7.26672V4.75728H19.787V4.75728Z"/><path fill="#333" d="M7.26671 10.2014H4.75727C4.61286 10.2015 4.47439 10.2589 4.37228 10.361C4.27016 10.4631 4.21277 10.6016 4.21271 10.746V13.2552C4.21277 13.3996 4.27016 13.5381 4.37228 13.6402C4.47439 13.7423 4.61286 13.7997 4.75727 13.7998H7.26647C7.41087 13.7997 7.54935 13.7423 7.65146 13.6402C7.75357 13.5381 7.81096 13.3996 7.81103 13.2552V10.7462C7.81106 10.6747 7.797 10.6039 7.76967 10.5378C7.74233 10.4717 7.70224 10.4117 7.6517 10.3611C7.60115 10.3105 7.54114 10.2704 7.47508 10.243C7.40903 10.2156 7.33822 10.2015 7.26671 10.2014V10.2014Z"/><path fill="#333" d="M13.2545 10.2014H10.7453C10.6009 10.2015 10.4624 10.2589 10.3603 10.361C10.2582 10.4631 10.2008 10.6016 10.2007 10.746V13.2552C10.2008 13.3996 10.2582 13.5381 10.3603 13.6402C10.4624 13.7423 10.6009 13.7997 10.7453 13.7998H13.2545C13.3989 13.7997 13.5374 13.7423 13.6395 13.6402C13.7416 13.5381 13.799 13.3996 13.799 13.2552V10.7462C13.7991 10.6747 13.785 10.6039 13.7577 10.5378C13.7303 10.4717 13.6902 10.4116 13.6396 10.361C13.5891 10.3104 13.529 10.2703 13.4629 10.2429C13.3968 10.2155 13.326 10.2014 13.2545 10.2014V10.2014Z"/><path fill="#333" d="M19.2425 10.2014H16.733C16.5886 10.2015 16.4502 10.2589 16.348 10.361C16.2459 10.4631 16.1885 10.6016 16.1885 10.746V13.2552C16.1885 13.3996 16.2458 13.5382 16.348 13.6403C16.4501 13.7425 16.5886 13.7999 16.733 13.8H19.2422C19.3866 13.7999 19.5251 13.7425 19.6272 13.6404C19.7293 13.5383 19.7867 13.3998 19.7868 13.2554V10.7462C19.7868 10.6747 19.7728 10.6039 19.7454 10.5378C19.7181 10.4717 19.678 10.4117 19.6275 10.3611C19.5769 10.3105 19.5169 10.2704 19.4509 10.243C19.3848 10.2156 19.314 10.2015 19.2425 10.2014V10.2014Z"/><path fill="#333" d="M7.26671 16.189H4.75727C4.61286 16.189 4.47439 16.2464 4.37228 16.3485C4.27016 16.4506 4.21277 16.5891 4.21271 16.7335V19.2425C4.21277 19.3869 4.27016 19.5254 4.37228 19.6275C4.47439 19.7296 4.61286 19.787 4.75727 19.787H7.26647C7.41087 19.787 7.54935 19.7296 7.65146 19.6275C7.75357 19.5254 7.81096 19.3869 7.81103 19.2425V16.7335C7.81106 16.662 7.797 16.5912 7.76966 16.5251C7.74232 16.4591 7.70223 16.399 7.65168 16.3485C7.60114 16.2979 7.54112 16.2578 7.47507 16.2304C7.40901 16.2031 7.33821 16.189 7.26671 16.189V16.189Z"/><path fill="#333" d="M13.2545 16.189H10.7453C10.6009 16.189 10.4624 16.2464 10.3603 16.3485C10.2582 16.4506 10.2008 16.5891 10.2007 16.7335V19.2425C10.2008 19.3869 10.2582 19.5254 10.3603 19.6275C10.4624 19.7296 10.6009 19.787 10.7453 19.787H13.2545C13.3989 19.787 13.5374 19.7296 13.6395 19.6275C13.7416 19.5254 13.799 19.3869 13.799 19.2425V16.7335C13.799 16.5891 13.7417 16.4506 13.6395 16.3485C13.5374 16.2463 13.3989 16.189 13.2545 16.189V16.189Z"/><path fill="#333" d="M19.2425 16.189H16.733C16.5886 16.189 16.4502 16.2464 16.348 16.3485C16.2459 16.4506 16.1885 16.5891 16.1885 16.7335V19.2425C16.1885 19.3869 16.2458 19.5255 16.348 19.6276C16.4501 19.7298 16.5886 19.7872 16.733 19.7873H19.2422C19.3866 19.7872 19.5251 19.7298 19.6272 19.6277C19.7293 19.5256 19.7867 19.3871 19.7868 19.2427V16.7335C19.7868 16.662 19.7728 16.5912 19.7454 16.5251C19.7181 16.4591 19.678 16.399 19.6275 16.3485C19.5769 16.2979 19.5169 16.2578 19.4508 16.2304C19.3848 16.2031 19.314 16.189 19.2425 16.189Z"/></svg>