<svg width="24" height="24" viewBox="0 0 24 24" fill="none" xmlns="http://www.w3.org/2000/svg">
<path d="M0.239998 12C1.34543 9.83162 3.02885 8.01109 5.10422 6.73961C7.1796 5.46812 9.5661 4.7952 12 4.7952C14.4339 4.7952 16.8204 5.46812 18.8958 6.73961C20.9711 8.01109 22.6546 9.83162 23.76 12C22.6546 14.1684 20.9711 15.9889 18.8958 17.2604C16.8204 18.5319 14.4339 19.2048 12 19.2048C9.5661 19.2048 7.1796 18.5319 5.10422 17.2604C3.02885 15.9889 1.34543 14.1684 0.239998 12V12ZM12 16.8C13.273 16.8 14.4939 16.2943 15.3941 15.3941C16.2943 14.4939 16.8 13.273 16.8 12C16.8 10.727 16.2943 9.50606 15.3941 8.60589C14.4939 7.70571 13.273 7.2 12 7.2C10.727 7.2 9.50606 7.70571 8.60589 8.60589C7.70571 9.50606 7.2 10.727 7.2 12C7.2 13.273 7.70571 14.4939 8.60589 15.3941C9.50606 16.2943 10.727 16.8 12 16.8V16.8ZM12 14.4C11.3635 14.4 10.753 14.1471 10.3029 13.6971C9.85286 13.247 9.6 12.6365 9.6 12C9.6 11.3635 9.85286 10.753 10.3029 10.3029C10.753 9.85286 11.3635 9.6 12 9.6C12.6365 9.6 13.247 9.85286 13.6971 10.3029C14.1471 10.753 14.4 11.3635 14.4 12C14.4 12.6365 14.1471 13.247 13.6971 13.6971C13.247 14.1471 12.6365 14.4 12 14.4Z" fill="#9EABBE"/>
</svg>
