<svg width="24" height="24" viewBox="0 0 24 24" fill="none" xmlns="http://www.w3.org/2000/svg">
<path d="M15.372 5.232L13.248 7.368C12.4339 7.14956 11.5767 7.14932 10.7625 7.36733C9.94832 7.58533 9.20589 8.01389 8.60989 8.60988C8.01389 9.20588 7.58534 9.94831 7.36733 10.7625C7.14933 11.5767 7.14956 12.4339 7.36801 13.248L4.05601 16.548C2.47201 15.348 1.15201 13.788 0.240005 12C1.60911 9.31541 3.85559 7.1801 6.60616 5.94889C9.35673 4.71768 12.4458 4.46471 15.36 5.232H15.372ZM19.932 7.452C21.528 8.652 22.848 10.212 23.772 12C22.402 14.6896 20.1516 16.8283 17.3959 18.0599C14.6402 19.2914 11.5456 19.5414 8.62801 18.768L10.752 16.632C11.5661 16.8504 12.4233 16.8507 13.2375 16.6327C14.0517 16.4147 14.7941 15.9861 15.3901 15.3901C15.9861 14.7941 16.4147 14.0517 16.6327 13.2375C16.8507 12.4233 16.8505 11.5661 16.632 10.752L19.944 7.452H19.932ZM19.632 2.664L21.336 4.368L4.36801 21.336L2.66401 19.632L19.632 2.664V2.664Z" fill="#9EABBE"/>
</svg>
